<svg width="450" height="372" viewBox="0 0 450 372" fill="none" xmlns="http://www.w3.org/2000/svg">
<rect x="0.5" y="0.5" width="449" height="371" fill="#FFF8E6" stroke="#F7B500"/>
<path d="M190.75 36L184.025 19.325H181.45L174.75 36H177.125L178.6 32.3H186.9L188.375 36H190.75ZM186.275 30.45H179.2L182.75 21.475L186.275 30.45ZM207.276 36.3C210.226 36.3 212.226 34.9 213.626 33L211.851 32.025C210.901 33.45 209.176 34.45 207.276 34.45C203.626 34.45 200.851 31.625 200.851 27.675C200.851 23.7 203.626 20.9 207.276 20.9C209.176 20.9 210.901 21.925 211.851 23.325L213.601 22.35C212.276 20.475 210.226 19.05 207.276 19.05C202.476 19.05 198.701 22.55 198.701 27.675C198.701 32.8 202.476 36.3 207.276 36.3ZM226.095 36V34.15H218.345V19.325H216.27V36H226.095ZM243.289 36L236.564 19.325H233.989L227.289 36H229.664L231.139 32.3H239.439L240.914 36H243.289ZM238.814 30.45H231.739L235.289 21.475L238.814 30.45ZM250.528 36.3C255.028 36.3 256.678 33.825 256.678 31.4C256.678 25.175 246.803 27.325 246.803 23.575C246.803 22 248.228 20.925 250.228 20.925C252.053 20.925 253.803 21.55 255.053 22.925L256.303 21.4C254.903 19.925 252.928 19.075 250.378 19.075C247.103 19.075 244.653 20.95 244.653 23.7C244.653 29.65 254.528 27.275 254.528 31.575C254.528 32.85 253.578 34.45 250.603 34.45C248.253 34.45 246.453 33.3 245.353 32.075L244.128 33.65C245.503 35.2 247.628 36.3 250.528 36.3ZM265.176 36.3C269.676 36.3 271.326 33.825 271.326 31.4C271.326 25.175 261.451 27.325 261.451 23.575C261.451 22 262.876 20.925 264.876 20.925C266.701 20.925 268.451 21.55 269.701 22.925L270.951 21.4C269.551 19.925 267.576 19.075 265.026 19.075C261.751 19.075 259.301 20.95 259.301 23.7C259.301 29.65 269.176 27.275 269.176 31.575C269.176 32.85 268.226 34.45 265.251 34.45C262.901 34.45 261.101 33.3 260.001 32.075L258.776 33.65C260.151 35.2 262.276 36.3 265.176 36.3Z" fill="#0F355E"/>
<rect x="26" y="203" width="395" height="142.5" fill="#CEFFCC"/>
<path d="M50.0059 320.786L101 248.864L151.994 320.786H50.0059Z" fill="#FFEEE6" stroke="#E71757"/>
<path d="M84.158 314.875V302.869H82.016L78.272 311.905L74.546 302.869H72.404V314.875H73.898V304.993L77.966 314.875H78.578L82.664 304.993V314.875H84.158ZM90.8287 315.091C92.2507 315.091 93.4207 314.623 94.2847 313.759L93.6367 312.877C92.9527 313.579 91.9447 313.975 90.9547 313.975C89.0827 313.975 87.9307 312.607 87.8227 310.969H94.8607V310.627C94.8607 308.017 93.3127 305.965 90.6847 305.965C88.2007 305.965 86.4007 307.999 86.4007 310.519C86.4007 313.237 88.2547 315.091 90.8287 315.091ZM93.5287 309.979H87.8227C87.8947 308.647 88.8127 307.081 90.6667 307.081C92.6467 307.081 93.5107 308.683 93.5287 309.979ZM99.2433 315.091C100.035 315.091 100.521 314.857 100.863 314.533L100.467 313.525C100.287 313.723 99.9273 313.885 99.5493 313.885C98.9553 313.885 98.6673 313.417 98.6673 312.769V307.369H100.431V306.181H98.6673V303.805H97.3173V306.181H95.8773V307.369H97.3173V313.057C97.3173 314.353 97.9653 315.091 99.2433 315.091ZM109.574 314.875V308.737C109.574 306.847 108.62 305.965 106.802 305.965C105.488 305.965 104.3 306.721 103.688 307.441V302.869H102.338V314.875H103.688V308.521C104.21 307.819 105.218 307.171 106.262 307.171C107.432 307.171 108.224 307.621 108.224 309.151V314.875H109.574ZM116.068 315.091C118.714 315.091 120.37 313.039 120.37 310.519C120.37 307.999 118.714 305.965 116.068 305.965C113.422 305.965 111.766 307.999 111.766 310.519C111.766 313.039 113.422 315.091 116.068 315.091ZM116.068 313.885C114.214 313.885 113.17 312.301 113.17 310.519C113.17 308.755 114.214 307.171 116.068 307.171C117.922 307.171 118.948 308.755 118.948 310.519C118.948 312.301 117.922 313.885 116.068 313.885ZM130.221 314.875V302.869H128.871V307.495C128.169 306.541 127.107 305.965 125.937 305.965C123.651 305.965 122.067 307.765 122.067 310.537C122.067 313.363 123.669 315.091 125.937 315.091C127.161 315.091 128.223 314.461 128.871 313.579V314.875H130.221ZM126.261 313.885C124.515 313.885 123.471 312.463 123.471 310.537C123.471 308.611 124.515 307.171 126.261 307.171C127.341 307.171 128.385 307.819 128.871 308.575V312.517C128.385 313.273 127.341 313.885 126.261 313.885Z" fill="#0F355E"/>
<path d="M172.006 320.786L223 248.864L273.994 320.786H172.006Z" fill="#FFEEE6" stroke="#E71757"/>
<path d="M206.158 314.875V302.869H204.016L200.272 311.905L196.546 302.869H194.404V314.875H195.898V304.993L199.966 314.875H200.578L204.664 304.993V314.875H206.158ZM212.829 315.091C214.251 315.091 215.421 314.623 216.285 313.759L215.637 312.877C214.953 313.579 213.945 313.975 212.955 313.975C211.083 313.975 209.931 312.607 209.823 310.969H216.861V310.627C216.861 308.017 215.313 305.965 212.685 305.965C210.201 305.965 208.401 307.999 208.401 310.519C208.401 313.237 210.255 315.091 212.829 315.091ZM215.529 309.979H209.823C209.895 308.647 210.813 307.081 212.667 307.081C214.647 307.081 215.511 308.683 215.529 309.979ZM221.243 315.091C222.035 315.091 222.521 314.857 222.863 314.533L222.467 313.525C222.287 313.723 221.927 313.885 221.549 313.885C220.955 313.885 220.667 313.417 220.667 312.769V307.369H222.431V306.181H220.667V303.805H219.317V306.181H217.877V307.369H219.317V313.057C219.317 314.353 219.965 315.091 221.243 315.091ZM231.574 314.875V308.737C231.574 306.847 230.62 305.965 228.802 305.965C227.488 305.965 226.3 306.721 225.688 307.441V302.869H224.338V314.875H225.688V308.521C226.21 307.819 227.218 307.171 228.262 307.171C229.432 307.171 230.224 307.621 230.224 309.151V314.875H231.574ZM238.068 315.091C240.714 315.091 242.37 313.039 242.37 310.519C242.37 307.999 240.714 305.965 238.068 305.965C235.422 305.965 233.766 307.999 233.766 310.519C233.766 313.039 235.422 315.091 238.068 315.091ZM238.068 313.885C236.214 313.885 235.17 312.301 235.17 310.519C235.17 308.755 236.214 307.171 238.068 307.171C239.922 307.171 240.948 308.755 240.948 310.519C240.948 312.301 239.922 313.885 238.068 313.885ZM252.221 314.875V302.869H250.871V307.495C250.169 306.541 249.107 305.965 247.937 305.965C245.651 305.965 244.067 307.765 244.067 310.537C244.067 313.363 245.669 315.091 247.937 315.091C249.161 315.091 250.223 314.461 250.871 313.579V314.875H252.221ZM248.261 313.885C246.515 313.885 245.471 312.463 245.471 310.537C245.471 308.611 246.515 307.171 248.261 307.171C249.341 307.171 250.385 307.819 250.871 308.575V312.517C250.385 313.273 249.341 313.885 248.261 313.885Z" fill="#0F355E"/>
<path d="M294.006 320.786L345 248.864L395.994 320.786H294.006Z" fill="#FFEEE6" stroke="#E71757"/>
<path d="M328.158 314.875V302.869H326.016L322.272 311.905L318.546 302.869H316.404V314.875H317.898V304.993L321.966 314.875H322.578L326.664 304.993V314.875H328.158ZM334.829 315.091C336.251 315.091 337.421 314.623 338.285 313.759L337.637 312.877C336.953 313.579 335.945 313.975 334.955 313.975C333.083 313.975 331.931 312.607 331.823 310.969H338.861V310.627C338.861 308.017 337.313 305.965 334.685 305.965C332.201 305.965 330.401 307.999 330.401 310.519C330.401 313.237 332.255 315.091 334.829 315.091ZM337.529 309.979H331.823C331.895 308.647 332.813 307.081 334.667 307.081C336.647 307.081 337.511 308.683 337.529 309.979ZM343.243 315.091C344.035 315.091 344.521 314.857 344.863 314.533L344.467 313.525C344.287 313.723 343.927 313.885 343.549 313.885C342.955 313.885 342.667 313.417 342.667 312.769V307.369H344.431V306.181H342.667V303.805H341.317V306.181H339.877V307.369H341.317V313.057C341.317 314.353 341.965 315.091 343.243 315.091ZM353.574 314.875V308.737C353.574 306.847 352.62 305.965 350.802 305.965C349.488 305.965 348.3 306.721 347.688 307.441V302.869H346.338V314.875H347.688V308.521C348.21 307.819 349.218 307.171 350.262 307.171C351.432 307.171 352.224 307.621 352.224 309.151V314.875H353.574ZM360.068 315.091C362.714 315.091 364.37 313.039 364.37 310.519C364.37 307.999 362.714 305.965 360.068 305.965C357.422 305.965 355.766 307.999 355.766 310.519C355.766 313.039 357.422 315.091 360.068 315.091ZM360.068 313.885C358.214 313.885 357.17 312.301 357.17 310.519C357.17 308.755 358.214 307.171 360.068 307.171C361.922 307.171 362.948 308.755 362.948 310.519C362.948 312.301 361.922 313.885 360.068 313.885ZM374.221 314.875V302.869H372.871V307.495C372.169 306.541 371.107 305.965 369.937 305.965C367.651 305.965 366.067 307.765 366.067 310.537C366.067 313.363 367.669 315.091 369.937 315.091C371.161 315.091 372.223 314.461 372.871 313.579V314.875H374.221ZM370.261 313.885C368.515 313.885 367.471 312.463 367.471 310.537C367.471 308.611 368.515 307.171 370.261 307.171C371.341 307.171 372.385 307.819 372.871 308.575V312.517C372.385 313.273 371.341 313.885 370.261 313.885Z" fill="#0F355E"/>
<path d="M183.288 233.214C185.728 233.214 187.148 231.754 187.148 229.614C187.148 228.014 185.968 226.554 184.548 226.334C185.768 226.074 186.888 224.954 186.888 223.274C186.888 221.274 185.468 219.874 183.148 219.874H177.208V233.214H183.288ZM182.868 225.654H178.868V221.354H182.868C184.368 221.354 185.168 222.314 185.168 223.514C185.168 224.734 184.368 225.654 182.868 225.654ZM182.948 231.734H178.868V227.134H182.948C184.588 227.134 185.428 228.214 185.428 229.434C185.428 230.854 184.508 231.734 182.948 231.734ZM198.527 233.214V231.734H191.447V227.134H198.387V225.654H191.447V221.354H198.527V219.874H189.787V233.214H198.527ZM212.293 233.214V219.874H210.633V225.614H202.833V219.874H201.173V233.214H202.833V227.094H210.633V233.214H212.293ZM226.832 233.214L221.452 219.874H219.392L214.032 233.214H215.932L217.112 230.254H223.752L224.932 233.214H226.832ZM223.252 228.774H217.592L220.432 221.594L223.252 228.774ZM233.541 233.214L238.921 219.874H237.021L232.521 231.394L228.021 219.874H226.121L231.481 233.214H233.541ZM242.325 233.214V219.874H240.665V233.214H242.325ZM251.531 233.454C255.471 233.454 258.151 230.494 258.151 226.554C258.151 222.614 255.471 219.654 251.531 219.654C247.571 219.654 244.911 222.614 244.911 226.554C244.911 230.494 247.571 233.454 251.531 233.454ZM251.531 231.974C248.531 231.974 246.631 229.654 246.631 226.554C246.631 223.434 248.531 221.134 251.531 221.134C254.511 221.134 256.431 223.434 256.431 226.554C256.431 229.654 254.511 231.974 251.531 231.974ZM270.424 233.214L266.824 227.774C268.644 227.614 270.284 226.294 270.284 223.894C270.284 221.434 268.544 219.874 266.104 219.874H260.744V233.214H262.404V227.914H265.064L268.464 233.214H270.424ZM265.904 226.454H262.404V221.354H265.904C267.484 221.354 268.564 222.394 268.564 223.894C268.564 225.394 267.484 226.454 265.904 226.454Z" fill="#0F355E"/>
<rect x="26" y="60" width="395" height="142.5" fill="#D9F9FF"/>
<path d="M200.399 89.4364C203.999 89.4364 205.319 87.4564 205.319 85.5164C205.319 80.5364 197.419 82.2564 197.419 79.2564C197.419 77.9964 198.559 77.1364 200.159 77.1364C201.619 77.1364 203.019 77.6364 204.019 78.7364L205.019 77.5164C203.899 76.3364 202.319 75.6564 200.279 75.6564C197.659 75.6564 195.699 77.1564 195.699 79.3564C195.699 84.1164 203.599 82.2164 203.599 85.6564C203.599 86.6764 202.839 87.9564 200.459 87.9564C198.579 87.9564 197.139 87.0364 196.259 86.0564L195.279 87.3164C196.379 88.5564 198.079 89.4364 200.399 89.4364ZM212.641 89.1964V77.3364H216.881V75.8564H206.761V77.3364H210.981V89.1964H212.641ZM229.159 89.1964L223.779 75.8564H221.719L216.359 89.1964H218.259L219.439 86.2364H226.079L227.259 89.1964H229.159ZM225.579 84.7564H219.919L222.759 77.5764L225.579 84.7564ZM234.516 89.1964V77.3364H238.756V75.8564H228.636V77.3364H232.856V89.1964H234.516ZM249.702 89.1964V87.7164H242.622V83.1164H249.562V81.6364H242.622V77.3364H249.702V75.8564H240.962V89.1964H249.702Z" fill="#0F355E"/>
<path d="M148.937 147.536C148.937 170.814 127.595 189.786 101.136 189.786C74.6766 189.786 53.3342 170.814 53.3342 147.536C53.3342 124.257 74.6766 105.286 101.136 105.286C127.595 105.286 148.937 124.257 148.937 147.536Z" fill="#FFEEE6" stroke="#EF6548"/>
<path d="M78.1022 155.375L73.1257 143.035H71.2202L66.2622 155.375H68.0197L69.1112 152.637H75.2532L76.3447 155.375H78.1022ZM74.7907 151.268H69.5552L72.1822 144.626L74.7907 151.268ZM81.7182 155.597C82.5322 155.597 83.0317 155.356 83.3832 155.023L82.9762 153.987C82.7912 154.191 82.4212 154.357 82.0327 154.357C81.4222 154.357 81.1262 153.876 81.1262 153.21V147.66H82.9392V146.439H81.1262V143.997H79.7387V146.439H78.2587V147.66H79.7387V153.506C79.7387 154.838 80.4047 155.597 81.7182 155.597ZM87.1562 155.597C87.9702 155.597 88.4697 155.356 88.8212 155.023L88.4142 153.987C88.2292 154.191 87.8592 154.357 87.4707 154.357C86.8602 154.357 86.5642 153.876 86.5642 153.21V147.66H88.3772V146.439H86.5642V143.997H85.1767V146.439H83.6967V147.66H85.1767V153.506C85.1767 154.838 85.8427 155.597 87.1562 155.597ZM91.7247 155.375V149.048C92.1317 148.326 93.2972 147.623 94.1482 147.623C94.3702 147.623 94.5367 147.642 94.7032 147.679V146.254C93.4822 146.254 92.4462 146.939 91.7247 147.882V146.439H90.3372V155.375H91.7247ZM97.1282 145.163C97.6462 145.163 98.0717 144.756 98.0717 144.238C98.0717 143.72 97.6462 143.294 97.1282 143.294C96.6287 143.294 96.2032 143.72 96.2032 144.238C96.2032 144.756 96.6287 145.163 97.1282 145.163ZM97.8312 155.375V146.439H96.4437V155.375H97.8312ZM101.986 152.951V148.9C102.467 148.123 103.559 147.457 104.65 147.457C106.463 147.457 107.536 148.937 107.536 150.916C107.536 152.896 106.463 154.357 104.65 154.357C103.559 154.357 102.467 153.728 101.986 152.951ZM101.986 155.375V154.043C102.652 154.949 103.744 155.597 105.002 155.597C107.333 155.597 108.979 153.821 108.979 150.916C108.979 148.067 107.333 146.217 105.002 146.217C103.781 146.217 102.708 146.809 101.986 147.79V143.035H100.599V155.375H101.986ZM118.659 155.375V146.439H117.271V153.007C116.753 153.728 115.717 154.357 114.626 154.357C113.423 154.357 112.628 153.895 112.628 152.322V146.439H111.24V152.748C111.24 154.69 112.221 155.597 114.089 155.597C115.421 155.597 116.587 154.894 117.271 154.117V155.375H118.659ZM123.686 155.597C124.5 155.597 125 155.356 125.351 155.023L124.944 153.987C124.759 154.191 124.389 154.357 124.001 154.357C123.39 154.357 123.094 153.876 123.094 153.21V147.66H124.907V146.439H123.094V143.997H121.707V146.439H120.227V147.66H121.707V153.506C121.707 154.838 122.373 155.597 123.686 155.597ZM130.9 155.597C132.362 155.597 133.564 155.116 134.452 154.228L133.786 153.321C133.083 154.043 132.047 154.45 131.03 154.45C129.106 154.45 127.922 153.044 127.811 151.36H135.044V151.009C135.044 148.326 133.453 146.217 130.752 146.217C128.199 146.217 126.349 148.308 126.349 150.898C126.349 153.691 128.255 155.597 130.9 155.597ZM133.675 150.343H127.811C127.885 148.974 128.828 147.364 130.734 147.364C132.769 147.364 133.657 149.011 133.675 150.343Z" fill="#0F355E"/>
<path d="M393.103 147.536C393.103 170.814 371.761 189.786 345.302 189.786C318.842 189.786 297.5 170.814 297.5 147.536C297.5 124.257 318.842 105.286 345.302 105.286C371.761 105.286 393.103 124.257 393.103 147.536Z" fill="#FFEEE6" stroke="#EF6548"/>
<path d="M322.268 155.375L317.291 143.035H315.386L310.428 155.375H312.185L313.277 152.637H319.419L320.51 155.375H322.268ZM318.956 151.268H313.721L316.348 144.626L318.956 151.268ZM325.884 155.597C326.698 155.597 327.198 155.356 327.549 155.023L327.142 153.987C326.957 154.191 326.587 154.357 326.199 154.357C325.588 154.357 325.292 153.876 325.292 153.21V147.66H327.105V146.439H325.292V143.997H323.905V146.439H322.425V147.66H323.905V153.506C323.905 154.838 324.571 155.597 325.884 155.597ZM331.322 155.597C332.136 155.597 332.635 155.356 332.987 155.023L332.58 153.987C332.395 154.191 332.025 154.357 331.636 154.357C331.026 154.357 330.73 153.876 330.73 153.21V147.66H332.543V146.439H330.73V143.997H329.342V146.439H327.862V147.66H329.342V153.506C329.342 154.838 330.008 155.597 331.322 155.597ZM335.89 155.375V149.048C336.297 148.326 337.463 147.623 338.314 147.623C338.536 147.623 338.702 147.642 338.869 147.679V146.254C337.648 146.254 336.612 146.939 335.89 147.882V146.439H334.503V155.375H335.89ZM341.294 145.163C341.812 145.163 342.237 144.756 342.237 144.238C342.237 143.72 341.812 143.294 341.294 143.294C340.794 143.294 340.369 143.72 340.369 144.238C340.369 144.756 340.794 145.163 341.294 145.163ZM341.997 155.375V146.439H340.609V155.375H341.997ZM346.152 152.951V148.9C346.633 148.123 347.725 147.457 348.816 147.457C350.629 147.457 351.702 148.937 351.702 150.916C351.702 152.896 350.629 154.357 348.816 154.357C347.725 154.357 346.633 153.728 346.152 152.951ZM346.152 155.375V154.043C346.818 154.949 347.91 155.597 349.168 155.597C351.499 155.597 353.145 153.821 353.145 150.916C353.145 148.067 351.499 146.217 349.168 146.217C347.947 146.217 346.874 146.809 346.152 147.79V143.035H344.765V155.375H346.152ZM362.824 155.375V146.439H361.437V153.007C360.919 153.728 359.883 154.357 358.791 154.357C357.589 154.357 356.793 153.895 356.793 152.322V146.439H355.406V152.748C355.406 154.69 356.386 155.597 358.255 155.597C359.587 155.597 360.752 154.894 361.437 154.117V155.375H362.824ZM367.852 155.597C368.666 155.597 369.166 155.356 369.517 155.023L369.11 153.987C368.925 154.191 368.555 154.357 368.167 154.357C367.556 154.357 367.26 153.876 367.26 153.21V147.66H369.073V146.439H367.26V143.997H365.873V146.439H364.393V147.66H365.873V153.506C365.873 154.838 366.539 155.597 367.852 155.597ZM375.066 155.597C376.528 155.597 377.73 155.116 378.618 154.228L377.952 153.321C377.249 154.043 376.213 154.45 375.196 154.45C373.272 154.45 372.088 153.044 371.977 151.36H379.21V151.009C379.21 148.326 377.619 146.217 374.918 146.217C372.365 146.217 370.515 148.308 370.515 150.898C370.515 153.691 372.421 155.597 375.066 155.597ZM377.841 150.343H371.977C372.051 148.974 372.994 147.364 374.9 147.364C376.935 147.364 377.823 149.011 377.841 150.343Z" fill="#0F355E"/>
<path d="M271.103 147.536C271.103 170.814 249.761 189.786 223.302 189.786C196.842 189.786 175.5 170.814 175.5 147.536C175.5 124.257 196.842 105.286 223.302 105.286C249.761 105.286 271.103 124.257 271.103 147.536Z" fill="#FFEEE6" stroke="#EF6548"/>
<path d="M200.268 155.375L195.291 143.035H193.386L188.428 155.375H190.185L191.277 152.637H197.419L198.51 155.375H200.268ZM196.956 151.268H191.721L194.348 144.626L196.956 151.268ZM203.884 155.597C204.698 155.597 205.198 155.356 205.549 155.023L205.142 153.987C204.957 154.191 204.587 154.357 204.199 154.357C203.588 154.357 203.292 153.876 203.292 153.21V147.66H205.105V146.439H203.292V143.997H201.905V146.439H200.425V147.66H201.905V153.506C201.905 154.838 202.571 155.597 203.884 155.597ZM209.322 155.597C210.136 155.597 210.635 155.356 210.987 155.023L210.58 153.987C210.395 154.191 210.025 154.357 209.636 154.357C209.026 154.357 208.73 153.876 208.73 153.21V147.66H210.543V146.439H208.73V143.997H207.342V146.439H205.862V147.66H207.342V153.506C207.342 154.838 208.008 155.597 209.322 155.597ZM213.89 155.375V149.048C214.297 148.326 215.463 147.623 216.314 147.623C216.536 147.623 216.702 147.642 216.869 147.679V146.254C215.648 146.254 214.612 146.939 213.89 147.882V146.439H212.503V155.375H213.89ZM219.294 145.163C219.812 145.163 220.237 144.756 220.237 144.238C220.237 143.72 219.812 143.294 219.294 143.294C218.794 143.294 218.369 143.72 218.369 144.238C218.369 144.756 218.794 145.163 219.294 145.163ZM219.997 155.375V146.439H218.609V155.375H219.997ZM224.152 152.951V148.9C224.633 148.123 225.725 147.457 226.816 147.457C228.629 147.457 229.702 148.937 229.702 150.916C229.702 152.896 228.629 154.357 226.816 154.357C225.725 154.357 224.633 153.728 224.152 152.951ZM224.152 155.375V154.043C224.818 154.949 225.91 155.597 227.168 155.597C229.499 155.597 231.145 153.821 231.145 150.916C231.145 148.067 229.499 146.217 227.168 146.217C225.947 146.217 224.874 146.809 224.152 147.79V143.035H222.765V155.375H224.152ZM240.824 155.375V146.439H239.437V153.007C238.919 153.728 237.883 154.357 236.791 154.357C235.589 154.357 234.793 153.895 234.793 152.322V146.439H233.406V152.748C233.406 154.69 234.386 155.597 236.255 155.597C237.587 155.597 238.752 154.894 239.437 154.117V155.375H240.824ZM245.852 155.597C246.666 155.597 247.166 155.356 247.517 155.023L247.11 153.987C246.925 154.191 246.555 154.357 246.167 154.357C245.556 154.357 245.26 153.876 245.26 153.21V147.66H247.073V146.439H245.26V143.997H243.873V146.439H242.393V147.66H243.873V153.506C243.873 154.838 244.539 155.597 245.852 155.597ZM253.066 155.597C254.528 155.597 255.73 155.116 256.618 154.228L255.952 153.321C255.249 154.043 254.213 154.45 253.196 154.45C251.272 154.45 250.088 153.044 249.977 151.36H257.21V151.009C257.21 148.326 255.619 146.217 252.918 146.217C250.365 146.217 248.515 148.308 248.515 150.898C248.515 153.691 250.421 155.597 253.066 155.597ZM255.841 150.343H249.977C250.051 148.974 250.994 147.364 252.9 147.364C254.935 147.364 255.823 149.011 255.841 150.343Z" fill="#0F355E"/>
</svg>
